M48
; DRILL file {KiCad 6.0.8+dfsg-1~bpo11+1+rpt1} date Wed 16 Aug 2023 03:04:51 PM EDT
; FORMAT={-:-/ absolute / inch / decimal}
; #@! TF.CreationDate,2023-08-16T15:04:51-04:00
; #@! TF.GenerationSoftware,Kicad,Pcbnew,6.0.8+dfsg-1~bpo11+1+rpt1
; #@! TF.FileFunction,Plated,1,2,PTH
FMAT,2
INCH
; #@! TA.AperFunction,Plated,PTH,ComponentDrill
T1C0.0315
; #@! TA.AperFunction,Plated,PTH,ComponentDrill
T2C0.0394
%
G90
G05
T1
X7.079Y-2.0697
X7.079Y-2.1697
X7.079Y-2.2697
X7.079Y-2.3697
X7.079Y-2.4697
X7.079Y-2.5697
X7.079Y-2.6697
X7.079Y-2.7697
X7.079Y-2.8697
X7.079Y-2.9697
X7.079Y-3.0697
X7.079Y-3.1697
X7.079Y-3.2697
X7.079Y-3.3697
X7.679Y-2.0697
X7.679Y-2.1697
X7.679Y-2.2697
X7.679Y-2.3697
X7.679Y-2.4697
X7.679Y-2.5697
X7.679Y-2.6697
X7.679Y-2.7697
X7.679Y-2.8697
X7.679Y-2.9697
X7.679Y-3.0697
X7.679Y-3.1697
X7.679Y-3.2697
X7.679Y-3.3697
T2
X5.2778Y-1.7686
X5.2778Y-1.8686
X5.2778Y-1.9686
X5.2778Y-2.0686
X5.2778Y-2.1686
X5.2778Y-2.2686
X5.2778Y-2.3686
X5.2778Y-2.4686
X5.2778Y-2.5686
X5.2778Y-2.6686
X5.2778Y-2.7686
X5.2778Y-2.8686
X5.2778Y-2.9686
X5.2778Y-3.0686
X5.2778Y-3.1686
X5.2778Y-3.2686
X5.2778Y-3.3686
X5.2778Y-3.4686
X5.2778Y-3.5686
X5.2778Y-3.6686
X5.3778Y-1.7686
X5.3778Y-1.8686
X5.3778Y-1.9686
X5.3778Y-2.0686
X5.3778Y-2.1686
X5.3778Y-2.2686
X5.3778Y-2.3686
X5.3778Y-2.4686
X5.3778Y-2.5686
X5.3778Y-2.6686
X5.3778Y-2.7686
X5.3778Y-2.8686
X5.3778Y-2.9686
X5.3778Y-3.0686
X5.3778Y-3.1686
X5.3778Y-3.2686
X5.3778Y-3.3686
X5.3778Y-3.4686
X5.3778Y-3.5686
X5.3778Y-3.6686
X6.188Y-1.768
X6.288Y-1.768
X6.388Y-1.768
T0
M30
