G04 #@! TF.GenerationSoftware,KiCad,Pcbnew,6.0.8+dfsg-1~bpo11+1+rpt1*
G04 #@! TF.CreationDate,2023-08-21T15:08:01-04:00*
G04 #@! TF.ProjectId,pi-eeprom-programmer,70692d65-6570-4726-9f6d-2d70726f6772,0.9.2*
G04 #@! TF.SameCoordinates,Original*
G04 #@! TF.FileFunction,Soldermask,Bot*
G04 #@! TF.FilePolarity,Negative*
%FSLAX46Y46*%
G04 Gerber Fmt 4.6, Leading zero omitted, Abs format (unit mm)*
G04 Created by KiCad (PCBNEW 6.0.8+dfsg-1~bpo11+1+rpt1) date 2023-08-21 15:08:01*
%MOMM*%
%LPD*%
G01*
G04 APERTURE LIST*
%ADD10R,1.700000X1.700000*%
%ADD11O,1.700000X1.700000*%
%ADD12R,1.600000X1.600000*%
%ADD13O,1.600000X1.600000*%
G04 APERTURE END LIST*
D10*
X136595201Y-44921500D03*
D11*
X134055201Y-44921500D03*
X136595201Y-47461500D03*
X134055201Y-47461500D03*
X136595201Y-50001500D03*
X134055201Y-50001500D03*
X136595201Y-52541500D03*
X134055201Y-52541500D03*
X136595201Y-55081500D03*
X134055201Y-55081500D03*
X136595201Y-57621500D03*
X134055201Y-57621500D03*
X136595201Y-60161500D03*
X134055201Y-60161500D03*
X136595201Y-62701500D03*
X134055201Y-62701500D03*
X136595201Y-65241500D03*
X134055201Y-65241500D03*
X136595201Y-67781500D03*
X134055201Y-67781500D03*
X136595201Y-70321500D03*
X134055201Y-70321500D03*
X136595201Y-72861500D03*
X134055201Y-72861500D03*
X136595201Y-75401500D03*
X134055201Y-75401500D03*
X136595201Y-77941500D03*
X134055201Y-77941500D03*
X136595201Y-80481500D03*
X134055201Y-80481500D03*
X136595201Y-83021500D03*
X134055201Y-83021500D03*
X136595201Y-85561500D03*
X134055201Y-85561500D03*
X136595201Y-88101500D03*
X134055201Y-88101500D03*
X136595201Y-90641500D03*
X134055201Y-90641500D03*
X136595201Y-93181500D03*
X134055201Y-93181500D03*
D12*
X179806600Y-52571500D03*
D13*
X179806600Y-55111500D03*
X179806600Y-57651500D03*
X179806600Y-60191500D03*
X179806600Y-62731500D03*
X179806600Y-65271500D03*
X179806600Y-67811500D03*
X179806600Y-70351500D03*
X179806600Y-72891500D03*
X179806600Y-75431500D03*
X179806600Y-77971500D03*
X179806600Y-80511500D03*
X179806600Y-83051500D03*
X179806600Y-85591500D03*
X195046600Y-85591500D03*
X195046600Y-83051500D03*
X195046600Y-80511500D03*
X195046600Y-77971500D03*
X195046600Y-75431500D03*
X195046600Y-72891500D03*
X195046600Y-70351500D03*
X195046600Y-67811500D03*
X195046600Y-65271500D03*
X195046600Y-62731500D03*
X195046600Y-60191500D03*
X195046600Y-57651500D03*
X195046600Y-55111500D03*
X195046600Y-52571500D03*
D12*
X183581600Y-74225000D03*
D13*
X183581600Y-76765000D03*
X183581600Y-79305000D03*
X183581600Y-81845000D03*
X191201600Y-81845000D03*
X191201600Y-79305000D03*
X191201600Y-76765000D03*
X191201600Y-74225000D03*
D10*
X162255200Y-44907200D03*
D11*
X159715200Y-44907200D03*
X157175200Y-44907200D03*
M02*
