G04 #@! TF.GenerationSoftware,KiCad,Pcbnew,6.0.11+dfsg-1*
G04 #@! TF.CreationDate,2023-12-04T13:58:25-05:00*
G04 #@! TF.ProjectId,pi-eeprom-programmer,70692d65-6570-4726-9f6d-2d70726f6772,1.0.0*
G04 #@! TF.SameCoordinates,Original*
G04 #@! TF.FileFunction,Legend,Top*
G04 #@! TF.FilePolarity,Positive*
%FSLAX46Y46*%
G04 Gerber Fmt 4.6, Leading zero omitted, Abs format (unit mm)*
G04 Created by KiCad (PCBNEW 6.0.11+dfsg-1) date 2023-12-04 13:58:25*
%MOMM*%
%LPD*%
G01*
G04 APERTURE LIST*
%ADD10C,0.120000*%
%ADD11C,0.150000*%
G04 APERTURE END LIST*
D10*
X162814000Y-46990000D02*
X162814000Y-72390000D01*
X165354000Y-46990000D02*
X155194000Y-46990000D01*
X155194000Y-46990000D02*
X155194000Y-72390000D01*
X155194000Y-72390000D02*
X165354000Y-72390000D01*
X165354000Y-72390000D02*
X165354000Y-46990000D01*
X165354000Y-67310000D02*
X155194000Y-67310000D01*
X157734000Y-72390000D02*
X157734000Y-46990000D01*
X160274000Y-72390000D02*
X160274000Y-46990000D01*
D11*
X169021238Y-51785785D02*
X171021238Y-51785785D01*
X171021238Y-52547690D01*
X170926000Y-52738166D01*
X170830761Y-52833404D01*
X170640285Y-52928642D01*
X170354571Y-52928642D01*
X170164095Y-52833404D01*
X170068857Y-52738166D01*
X169973619Y-52547690D01*
X169973619Y-51785785D01*
X169021238Y-53785785D02*
X170354571Y-53785785D01*
X171021238Y-53785785D02*
X170926000Y-53690547D01*
X170830761Y-53785785D01*
X170926000Y-53881023D01*
X171021238Y-53785785D01*
X170830761Y-53785785D01*
X170068857Y-56261976D02*
X170068857Y-56928642D01*
X169021238Y-57214357D02*
X169021238Y-56261976D01*
X171021238Y-56261976D01*
X171021238Y-57214357D01*
X170068857Y-58071500D02*
X170068857Y-58738166D01*
X169021238Y-59023880D02*
X169021238Y-58071500D01*
X171021238Y-58071500D01*
X171021238Y-59023880D01*
X169021238Y-59881023D02*
X171021238Y-59881023D01*
X171021238Y-60642928D01*
X170926000Y-60833404D01*
X170830761Y-60928642D01*
X170640285Y-61023880D01*
X170354571Y-61023880D01*
X170164095Y-60928642D01*
X170068857Y-60833404D01*
X169973619Y-60642928D01*
X169973619Y-59881023D01*
X169021238Y-61881023D02*
X170354571Y-61881023D01*
X169973619Y-61881023D02*
X170164095Y-61976261D01*
X170259333Y-62071500D01*
X170354571Y-62261976D01*
X170354571Y-62452452D01*
X169021238Y-63404833D02*
X169116476Y-63214357D01*
X169211714Y-63119119D01*
X169402190Y-63023880D01*
X169973619Y-63023880D01*
X170164095Y-63119119D01*
X170259333Y-63214357D01*
X170354571Y-63404833D01*
X170354571Y-63690547D01*
X170259333Y-63881023D01*
X170164095Y-63976261D01*
X169973619Y-64071500D01*
X169402190Y-64071500D01*
X169211714Y-63976261D01*
X169116476Y-63881023D01*
X169021238Y-63690547D01*
X169021238Y-63404833D01*
X169021238Y-64928642D02*
X170354571Y-64928642D01*
X170164095Y-64928642D02*
X170259333Y-65023880D01*
X170354571Y-65214357D01*
X170354571Y-65500071D01*
X170259333Y-65690547D01*
X170068857Y-65785785D01*
X169021238Y-65785785D01*
X170068857Y-65785785D02*
X170259333Y-65881023D01*
X170354571Y-66071500D01*
X170354571Y-66357214D01*
X170259333Y-66547690D01*
X170068857Y-66642928D01*
X169021238Y-66642928D01*
X169021238Y-69119119D02*
X171021238Y-69119119D01*
X171021238Y-69881023D01*
X170926000Y-70071500D01*
X170830761Y-70166738D01*
X170640285Y-70261976D01*
X170354571Y-70261976D01*
X170164095Y-70166738D01*
X170068857Y-70071500D01*
X169973619Y-69881023D01*
X169973619Y-69119119D01*
X169021238Y-71119119D02*
X170354571Y-71119119D01*
X169973619Y-71119119D02*
X170164095Y-71214357D01*
X170259333Y-71309595D01*
X170354571Y-71500071D01*
X170354571Y-71690547D01*
X169021238Y-72642928D02*
X169116476Y-72452452D01*
X169211714Y-72357214D01*
X169402190Y-72261976D01*
X169973619Y-72261976D01*
X170164095Y-72357214D01*
X170259333Y-72452452D01*
X170354571Y-72642928D01*
X170354571Y-72928642D01*
X170259333Y-73119119D01*
X170164095Y-73214357D01*
X169973619Y-73309595D01*
X169402190Y-73309595D01*
X169211714Y-73214357D01*
X169116476Y-73119119D01*
X169021238Y-72928642D01*
X169021238Y-72642928D01*
X170354571Y-75023880D02*
X168735523Y-75023880D01*
X168545047Y-74928642D01*
X168449809Y-74833404D01*
X168354571Y-74642928D01*
X168354571Y-74357214D01*
X168449809Y-74166738D01*
X169116476Y-75023880D02*
X169021238Y-74833404D01*
X169021238Y-74452452D01*
X169116476Y-74261976D01*
X169211714Y-74166738D01*
X169402190Y-74071500D01*
X169973619Y-74071500D01*
X170164095Y-74166738D01*
X170259333Y-74261976D01*
X170354571Y-74452452D01*
X170354571Y-74833404D01*
X170259333Y-75023880D01*
X169021238Y-75976261D02*
X170354571Y-75976261D01*
X169973619Y-75976261D02*
X170164095Y-76071500D01*
X170259333Y-76166738D01*
X170354571Y-76357214D01*
X170354571Y-76547690D01*
X169021238Y-78071500D02*
X170068857Y-78071500D01*
X170259333Y-77976261D01*
X170354571Y-77785785D01*
X170354571Y-77404833D01*
X170259333Y-77214357D01*
X169116476Y-78071500D02*
X169021238Y-77881023D01*
X169021238Y-77404833D01*
X169116476Y-77214357D01*
X169306952Y-77119119D01*
X169497428Y-77119119D01*
X169687904Y-77214357D01*
X169783142Y-77404833D01*
X169783142Y-77881023D01*
X169878380Y-78071500D01*
X169021238Y-79023880D02*
X170354571Y-79023880D01*
X170164095Y-79023880D02*
X170259333Y-79119119D01*
X170354571Y-79309595D01*
X170354571Y-79595309D01*
X170259333Y-79785785D01*
X170068857Y-79881023D01*
X169021238Y-79881023D01*
X170068857Y-79881023D02*
X170259333Y-79976261D01*
X170354571Y-80166738D01*
X170354571Y-80452452D01*
X170259333Y-80642928D01*
X170068857Y-80738166D01*
X169021238Y-80738166D01*
X169021238Y-81690547D02*
X170354571Y-81690547D01*
X170164095Y-81690547D02*
X170259333Y-81785785D01*
X170354571Y-81976261D01*
X170354571Y-82261976D01*
X170259333Y-82452452D01*
X170068857Y-82547690D01*
X169021238Y-82547690D01*
X170068857Y-82547690D02*
X170259333Y-82642928D01*
X170354571Y-82833404D01*
X170354571Y-83119119D01*
X170259333Y-83309595D01*
X170068857Y-83404833D01*
X169021238Y-83404833D01*
X169116476Y-85119119D02*
X169021238Y-84928642D01*
X169021238Y-84547690D01*
X169116476Y-84357214D01*
X169306952Y-84261976D01*
X170068857Y-84261976D01*
X170259333Y-84357214D01*
X170354571Y-84547690D01*
X170354571Y-84928642D01*
X170259333Y-85119119D01*
X170068857Y-85214357D01*
X169878380Y-85214357D01*
X169687904Y-84261976D01*
X169021238Y-86071500D02*
X170354571Y-86071500D01*
X169973619Y-86071500D02*
X170164095Y-86166738D01*
X170259333Y-86261976D01*
X170354571Y-86452452D01*
X170354571Y-86642928D01*
X161091619Y-47769047D02*
X162091619Y-47769047D01*
X162091619Y-48150000D01*
X162044000Y-48245238D01*
X161996380Y-48292857D01*
X161901142Y-48340476D01*
X161758285Y-48340476D01*
X161663047Y-48292857D01*
X161615428Y-48245238D01*
X161567809Y-48150000D01*
X161567809Y-47769047D01*
X161091619Y-49197619D02*
X161615428Y-49197619D01*
X161710666Y-49150000D01*
X161758285Y-49054762D01*
X161758285Y-48864285D01*
X161710666Y-48769047D01*
X161139238Y-49197619D02*
X161091619Y-49102381D01*
X161091619Y-48864285D01*
X161139238Y-48769047D01*
X161234476Y-48721428D01*
X161329714Y-48721428D01*
X161424952Y-48769047D01*
X161472571Y-48864285D01*
X161472571Y-49102381D01*
X161520190Y-49197619D01*
X161091619Y-49673809D02*
X161758285Y-49673809D01*
X161567809Y-49673809D02*
X161663047Y-49721428D01*
X161710666Y-49769047D01*
X161758285Y-49864285D01*
X161758285Y-49959524D01*
X161091619Y-50721428D02*
X161615428Y-50721428D01*
X161710666Y-50673809D01*
X161758285Y-50578571D01*
X161758285Y-50388095D01*
X161710666Y-50292857D01*
X161139238Y-50721428D02*
X161091619Y-50626190D01*
X161091619Y-50388095D01*
X161139238Y-50292857D01*
X161234476Y-50245238D01*
X161329714Y-50245238D01*
X161424952Y-50292857D01*
X161472571Y-50388095D01*
X161472571Y-50626190D01*
X161520190Y-50721428D01*
X161091619Y-51340476D02*
X161139238Y-51245238D01*
X161234476Y-51197619D01*
X162091619Y-51197619D01*
X161091619Y-51864285D02*
X161139238Y-51769047D01*
X161234476Y-51721428D01*
X162091619Y-51721428D01*
X161139238Y-52626190D02*
X161091619Y-52530952D01*
X161091619Y-52340476D01*
X161139238Y-52245238D01*
X161234476Y-52197619D01*
X161615428Y-52197619D01*
X161710666Y-52245238D01*
X161758285Y-52340476D01*
X161758285Y-52530952D01*
X161710666Y-52626190D01*
X161615428Y-52673809D01*
X161520190Y-52673809D01*
X161424952Y-52197619D01*
X161091619Y-53245238D02*
X161139238Y-53150000D01*
X161234476Y-53102381D01*
X162091619Y-53102381D01*
X161996380Y-54340476D02*
X162044000Y-54388095D01*
X162091619Y-54483333D01*
X162091619Y-54721428D01*
X162044000Y-54816666D01*
X161996380Y-54864285D01*
X161901142Y-54911904D01*
X161805904Y-54911904D01*
X161663047Y-54864285D01*
X161091619Y-54292857D01*
X161091619Y-54911904D01*
X161663047Y-55483333D02*
X161710666Y-55388095D01*
X161758285Y-55340476D01*
X161853523Y-55292857D01*
X161901142Y-55292857D01*
X161996380Y-55340476D01*
X162044000Y-55388095D01*
X162091619Y-55483333D01*
X162091619Y-55673809D01*
X162044000Y-55769047D01*
X161996380Y-55816666D01*
X161901142Y-55864285D01*
X161853523Y-55864285D01*
X161758285Y-55816666D01*
X161710666Y-55769047D01*
X161663047Y-55673809D01*
X161663047Y-55483333D01*
X161615428Y-55388095D01*
X161567809Y-55340476D01*
X161472571Y-55292857D01*
X161282095Y-55292857D01*
X161186857Y-55340476D01*
X161139238Y-55388095D01*
X161091619Y-55483333D01*
X161091619Y-55673809D01*
X161139238Y-55769047D01*
X161186857Y-55816666D01*
X161282095Y-55864285D01*
X161472571Y-55864285D01*
X161567809Y-55816666D01*
X161615428Y-55769047D01*
X161663047Y-55673809D01*
X161091619Y-57054762D02*
X162091619Y-57054762D01*
X162091619Y-57435714D01*
X162044000Y-57530952D01*
X161996380Y-57578571D01*
X161901142Y-57626190D01*
X161758285Y-57626190D01*
X161663047Y-57578571D01*
X161615428Y-57530952D01*
X161567809Y-57435714D01*
X161567809Y-57054762D01*
X161091619Y-58054762D02*
X161758285Y-58054762D01*
X162091619Y-58054762D02*
X162044000Y-58007143D01*
X161996380Y-58054762D01*
X162044000Y-58102381D01*
X162091619Y-58054762D01*
X161996380Y-58054762D01*
X161758285Y-58530952D02*
X161091619Y-58530952D01*
X161663047Y-58530952D02*
X161710666Y-58578571D01*
X161758285Y-58673809D01*
X161758285Y-58816666D01*
X161710666Y-58911904D01*
X161615428Y-58959524D01*
X161091619Y-58959524D01*
X161472571Y-60197619D02*
X161472571Y-60959524D01*
X161996380Y-62150000D02*
X162044000Y-62197619D01*
X162091619Y-62292857D01*
X162091619Y-62530952D01*
X162044000Y-62626190D01*
X161996380Y-62673809D01*
X161901142Y-62721428D01*
X161805904Y-62721428D01*
X161663047Y-62673809D01*
X161091619Y-62102381D01*
X161091619Y-62721428D01*
X161663047Y-63292857D02*
X161710666Y-63197619D01*
X161758285Y-63150000D01*
X161853523Y-63102381D01*
X161901142Y-63102381D01*
X161996380Y-63150000D01*
X162044000Y-63197619D01*
X162091619Y-63292857D01*
X162091619Y-63483333D01*
X162044000Y-63578571D01*
X161996380Y-63626190D01*
X161901142Y-63673809D01*
X161853523Y-63673809D01*
X161758285Y-63626190D01*
X161710666Y-63578571D01*
X161663047Y-63483333D01*
X161663047Y-63292857D01*
X161615428Y-63197619D01*
X161567809Y-63150000D01*
X161472571Y-63102381D01*
X161282095Y-63102381D01*
X161186857Y-63150000D01*
X161139238Y-63197619D01*
X161091619Y-63292857D01*
X161091619Y-63483333D01*
X161139238Y-63578571D01*
X161186857Y-63626190D01*
X161282095Y-63673809D01*
X161472571Y-63673809D01*
X161567809Y-63626190D01*
X161615428Y-63578571D01*
X161663047Y-63483333D01*
X161186857Y-64673809D02*
X161139238Y-64626190D01*
X161091619Y-64483333D01*
X161091619Y-64388095D01*
X161139238Y-64245238D01*
X161234476Y-64150000D01*
X161329714Y-64102381D01*
X161520190Y-64054762D01*
X161663047Y-64054762D01*
X161853523Y-64102381D01*
X161948761Y-64150000D01*
X162044000Y-64245238D01*
X162091619Y-64388095D01*
X162091619Y-64483333D01*
X162044000Y-64626190D01*
X161996380Y-64673809D01*
X162091619Y-65245238D02*
X161853523Y-65245238D01*
X161948761Y-65007143D02*
X161853523Y-65245238D01*
X161948761Y-65483333D01*
X161663047Y-65102381D02*
X161853523Y-65245238D01*
X161663047Y-65388095D01*
X162091619Y-66007143D02*
X161853523Y-66007143D01*
X161948761Y-65769047D02*
X161853523Y-66007143D01*
X161948761Y-66245238D01*
X161663047Y-65864285D02*
X161853523Y-66007143D01*
X161663047Y-66150000D01*
X167425619Y-79547690D02*
X166425619Y-79881024D01*
X167425619Y-80214357D01*
X166473238Y-80928643D02*
X166425619Y-80833405D01*
X166425619Y-80642929D01*
X166473238Y-80547690D01*
X166568476Y-80500071D01*
X166949428Y-80500071D01*
X167044666Y-80547690D01*
X167092285Y-80642929D01*
X167092285Y-80833405D01*
X167044666Y-80928643D01*
X166949428Y-80976262D01*
X166854190Y-80976262D01*
X166758952Y-80500071D01*
X166425619Y-81404833D02*
X167092285Y-81404833D01*
X166901809Y-81404833D02*
X166997047Y-81452452D01*
X167044666Y-81500071D01*
X167092285Y-81595309D01*
X167092285Y-81690548D01*
X166520857Y-82023881D02*
X166473238Y-82071500D01*
X166425619Y-82023881D01*
X166473238Y-81976262D01*
X166520857Y-82023881D01*
X166425619Y-82023881D01*
X166425619Y-83785786D02*
X166425619Y-83214357D01*
X166425619Y-83500071D02*
X167425619Y-83500071D01*
X167282761Y-83404833D01*
X167187523Y-83309595D01*
X167139904Y-83214357D01*
X166520857Y-84214357D02*
X166473238Y-84261976D01*
X166425619Y-84214357D01*
X166473238Y-84166738D01*
X166520857Y-84214357D01*
X166425619Y-84214357D01*
X167425619Y-84881024D02*
X167425619Y-84976262D01*
X167378000Y-85071500D01*
X167330380Y-85119119D01*
X167235142Y-85166738D01*
X167044666Y-85214357D01*
X166806571Y-85214357D01*
X166616095Y-85166738D01*
X166520857Y-85119119D01*
X166473238Y-85071500D01*
X166425619Y-84976262D01*
X166425619Y-84881024D01*
X166473238Y-84785786D01*
X166520857Y-84738167D01*
X166616095Y-84690548D01*
X166806571Y-84642929D01*
X167044666Y-84642929D01*
X167235142Y-84690548D01*
X167330380Y-84738167D01*
X167378000Y-84785786D01*
X167425619Y-84881024D01*
X166520857Y-85642929D02*
X166473238Y-85690548D01*
X166425619Y-85642929D01*
X166473238Y-85595309D01*
X166520857Y-85642929D01*
X166425619Y-85642929D01*
X167425619Y-86309595D02*
X167425619Y-86404833D01*
X167378000Y-86500071D01*
X167330380Y-86547690D01*
X167235142Y-86595309D01*
X167044666Y-86642929D01*
X166806571Y-86642929D01*
X166616095Y-86595309D01*
X166520857Y-86547690D01*
X166473238Y-86500071D01*
X166425619Y-86404833D01*
X166425619Y-86309595D01*
X166473238Y-86214357D01*
X166520857Y-86166738D01*
X166616095Y-86119119D01*
X166806571Y-86071500D01*
X167044666Y-86071500D01*
X167235142Y-86119119D01*
X167330380Y-86166738D01*
X167378000Y-86214357D01*
X167425619Y-86309595D01*
X176852805Y-83719898D02*
X176819133Y-83618883D01*
X176718118Y-83517868D01*
X176583431Y-83450524D01*
X176448744Y-83450524D01*
X176347729Y-83484196D01*
X176179370Y-83585211D01*
X176078355Y-83686226D01*
X175977339Y-83854585D01*
X175943668Y-83955600D01*
X175943668Y-84090287D01*
X176011011Y-84224974D01*
X176078355Y-84292318D01*
X176213042Y-84359661D01*
X176280385Y-84359661D01*
X176516087Y-84123959D01*
X176381400Y-83989272D01*
X176516087Y-84730051D02*
X177223194Y-84022944D01*
X176920148Y-85134112D01*
X177627255Y-84427005D01*
X177256866Y-85470829D02*
X177963973Y-84763722D01*
X178132331Y-84932081D01*
X178199675Y-85066768D01*
X178199675Y-85201455D01*
X178166003Y-85302470D01*
X178064988Y-85470829D01*
X177963973Y-85571844D01*
X177795614Y-85672860D01*
X177694599Y-85706531D01*
X177559912Y-85706531D01*
X177425225Y-85639188D01*
X177256866Y-85470829D01*
X159456380Y-68469047D02*
X159504000Y-68516666D01*
X159551619Y-68611904D01*
X159551619Y-68850000D01*
X159504000Y-68945238D01*
X159456380Y-68992857D01*
X159361142Y-69040476D01*
X159265904Y-69040476D01*
X159123047Y-68992857D01*
X158551619Y-68421428D01*
X158551619Y-69040476D01*
X158932571Y-69469047D02*
X158932571Y-70230952D01*
X159551619Y-70611904D02*
X159551619Y-71230952D01*
X159170666Y-70897619D01*
X159170666Y-71040476D01*
X159123047Y-71135714D01*
X159075428Y-71183333D01*
X158980190Y-71230952D01*
X158742095Y-71230952D01*
X158646857Y-71183333D01*
X158599238Y-71135714D01*
X158551619Y-71040476D01*
X158551619Y-70754761D01*
X158599238Y-70659523D01*
X158646857Y-70611904D01*
X158551619Y-47578571D02*
X159551619Y-47578571D01*
X159551619Y-47959524D01*
X159504000Y-48054762D01*
X159456380Y-48102381D01*
X159361142Y-48150000D01*
X159218285Y-48150000D01*
X159123047Y-48102381D01*
X159075428Y-48054762D01*
X159027809Y-47959524D01*
X159027809Y-47578571D01*
X158551619Y-49007143D02*
X159075428Y-49007143D01*
X159170666Y-48959524D01*
X159218285Y-48864285D01*
X159218285Y-48673809D01*
X159170666Y-48578571D01*
X158599238Y-49007143D02*
X158551619Y-48911904D01*
X158551619Y-48673809D01*
X158599238Y-48578571D01*
X158694476Y-48530952D01*
X158789714Y-48530952D01*
X158884952Y-48578571D01*
X158932571Y-48673809D01*
X158932571Y-48911904D01*
X158980190Y-49007143D01*
X158551619Y-49483333D02*
X159218285Y-49483333D01*
X159027809Y-49483333D02*
X159123047Y-49530952D01*
X159170666Y-49578571D01*
X159218285Y-49673809D01*
X159218285Y-49769047D01*
X158551619Y-50530952D02*
X159075428Y-50530952D01*
X159170666Y-50483333D01*
X159218285Y-50388095D01*
X159218285Y-50197619D01*
X159170666Y-50102381D01*
X158599238Y-50530952D02*
X158551619Y-50435714D01*
X158551619Y-50197619D01*
X158599238Y-50102381D01*
X158694476Y-50054762D01*
X158789714Y-50054762D01*
X158884952Y-50102381D01*
X158932571Y-50197619D01*
X158932571Y-50435714D01*
X158980190Y-50530952D01*
X158551619Y-51150000D02*
X158599238Y-51054762D01*
X158694476Y-51007143D01*
X159551619Y-51007143D01*
X158551619Y-51673809D02*
X158599238Y-51578571D01*
X158694476Y-51530952D01*
X159551619Y-51530952D01*
X158599238Y-52435714D02*
X158551619Y-52340476D01*
X158551619Y-52150000D01*
X158599238Y-52054762D01*
X158694476Y-52007143D01*
X159075428Y-52007143D01*
X159170666Y-52054762D01*
X159218285Y-52150000D01*
X159218285Y-52340476D01*
X159170666Y-52435714D01*
X159075428Y-52483333D01*
X158980190Y-52483333D01*
X158884952Y-52007143D01*
X158551619Y-53054762D02*
X158599238Y-52959524D01*
X158694476Y-52911904D01*
X159551619Y-52911904D01*
X159456380Y-54150000D02*
X159504000Y-54197619D01*
X159551619Y-54292857D01*
X159551619Y-54530952D01*
X159504000Y-54626190D01*
X159456380Y-54673809D01*
X159361142Y-54721428D01*
X159265904Y-54721428D01*
X159123047Y-54673809D01*
X158551619Y-54102381D01*
X158551619Y-54721428D01*
X159218285Y-55578571D02*
X158551619Y-55578571D01*
X159599238Y-55340476D02*
X158884952Y-55102381D01*
X158884952Y-55721428D01*
X158551619Y-56864285D02*
X159551619Y-56864285D01*
X159551619Y-57245238D01*
X159504000Y-57340476D01*
X159456380Y-57388095D01*
X159361142Y-57435714D01*
X159218285Y-57435714D01*
X159123047Y-57388095D01*
X159075428Y-57340476D01*
X159027809Y-57245238D01*
X159027809Y-56864285D01*
X158551619Y-57864285D02*
X159218285Y-57864285D01*
X159551619Y-57864285D02*
X159504000Y-57816666D01*
X159456380Y-57864285D01*
X159504000Y-57911904D01*
X159551619Y-57864285D01*
X159456380Y-57864285D01*
X159218285Y-58340476D02*
X158551619Y-58340476D01*
X159123047Y-58340476D02*
X159170666Y-58388095D01*
X159218285Y-58483333D01*
X159218285Y-58626190D01*
X159170666Y-58721428D01*
X159075428Y-58769047D01*
X158551619Y-58769047D01*
X158932571Y-60007143D02*
X158932571Y-60769047D01*
X159456380Y-61959524D02*
X159504000Y-62007143D01*
X159551619Y-62102381D01*
X159551619Y-62340476D01*
X159504000Y-62435714D01*
X159456380Y-62483333D01*
X159361142Y-62530952D01*
X159265904Y-62530952D01*
X159123047Y-62483333D01*
X158551619Y-61911904D01*
X158551619Y-62530952D01*
X159123047Y-63102381D02*
X159170666Y-63007143D01*
X159218285Y-62959524D01*
X159313523Y-62911904D01*
X159361142Y-62911904D01*
X159456380Y-62959524D01*
X159504000Y-63007143D01*
X159551619Y-63102381D01*
X159551619Y-63292857D01*
X159504000Y-63388095D01*
X159456380Y-63435714D01*
X159361142Y-63483333D01*
X159313523Y-63483333D01*
X159218285Y-63435714D01*
X159170666Y-63388095D01*
X159123047Y-63292857D01*
X159123047Y-63102381D01*
X159075428Y-63007143D01*
X159027809Y-62959524D01*
X158932571Y-62911904D01*
X158742095Y-62911904D01*
X158646857Y-62959524D01*
X158599238Y-63007143D01*
X158551619Y-63102381D01*
X158551619Y-63292857D01*
X158599238Y-63388095D01*
X158646857Y-63435714D01*
X158742095Y-63483333D01*
X158932571Y-63483333D01*
X159027809Y-63435714D01*
X159075428Y-63388095D01*
X159123047Y-63292857D01*
X158646857Y-64483333D02*
X158599238Y-64435714D01*
X158551619Y-64292857D01*
X158551619Y-64197619D01*
X158599238Y-64054762D01*
X158694476Y-63959524D01*
X158789714Y-63911904D01*
X158980190Y-63864285D01*
X159123047Y-63864285D01*
X159313523Y-63911904D01*
X159408761Y-63959524D01*
X159504000Y-64054762D01*
X159551619Y-64197619D01*
X159551619Y-64292857D01*
X159504000Y-64435714D01*
X159456380Y-64483333D01*
X158551619Y-65435714D02*
X158551619Y-64864285D01*
X158551619Y-65150000D02*
X159551619Y-65150000D01*
X159408761Y-65054762D01*
X159313523Y-64959524D01*
X159265904Y-64864285D01*
X159551619Y-66292857D02*
X159551619Y-66102381D01*
X159504000Y-66007143D01*
X159456380Y-65959524D01*
X159313523Y-65864285D01*
X159123047Y-65816666D01*
X158742095Y-65816666D01*
X158646857Y-65864285D01*
X158599238Y-65911904D01*
X158551619Y-66007143D01*
X158551619Y-66197619D01*
X158599238Y-66292857D01*
X158646857Y-66340476D01*
X158742095Y-66388095D01*
X158980190Y-66388095D01*
X159075428Y-66340476D01*
X159123047Y-66292857D01*
X159170666Y-66197619D01*
X159170666Y-66007143D01*
X159123047Y-65911904D01*
X159075428Y-65864285D01*
X158980190Y-65816666D01*
X156059238Y-49792857D02*
X156011619Y-49935714D01*
X156011619Y-50173809D01*
X156059238Y-50269047D01*
X156106857Y-50316666D01*
X156202095Y-50364285D01*
X156297333Y-50364285D01*
X156392571Y-50316666D01*
X156440190Y-50269047D01*
X156487809Y-50173809D01*
X156535428Y-49983333D01*
X156583047Y-49888095D01*
X156630666Y-49840476D01*
X156725904Y-49792857D01*
X156821142Y-49792857D01*
X156916380Y-49840476D01*
X156964000Y-49888095D01*
X157011619Y-49983333D01*
X157011619Y-50221428D01*
X156964000Y-50364285D01*
X156059238Y-51173809D02*
X156011619Y-51078571D01*
X156011619Y-50888095D01*
X156059238Y-50792857D01*
X156154476Y-50745238D01*
X156535428Y-50745238D01*
X156630666Y-50792857D01*
X156678285Y-50888095D01*
X156678285Y-51078571D01*
X156630666Y-51173809D01*
X156535428Y-51221428D01*
X156440190Y-51221428D01*
X156344952Y-50745238D01*
X156011619Y-51650000D02*
X156678285Y-51650000D01*
X156487809Y-51650000D02*
X156583047Y-51697619D01*
X156630666Y-51745238D01*
X156678285Y-51840476D01*
X156678285Y-51935714D01*
X156011619Y-52269047D02*
X156678285Y-52269047D01*
X157011619Y-52269047D02*
X156964000Y-52221428D01*
X156916380Y-52269047D01*
X156964000Y-52316666D01*
X157011619Y-52269047D01*
X156916380Y-52269047D01*
X156011619Y-53173809D02*
X156535428Y-53173809D01*
X156630666Y-53126190D01*
X156678285Y-53030952D01*
X156678285Y-52840476D01*
X156630666Y-52745238D01*
X156059238Y-53173809D02*
X156011619Y-53078571D01*
X156011619Y-52840476D01*
X156059238Y-52745238D01*
X156154476Y-52697619D01*
X156249714Y-52697619D01*
X156344952Y-52745238D01*
X156392571Y-52840476D01*
X156392571Y-53078571D01*
X156440190Y-53173809D01*
X156011619Y-53792857D02*
X156059238Y-53697619D01*
X156154476Y-53650000D01*
X157011619Y-53650000D01*
X156011619Y-54935714D02*
X157011619Y-54935714D01*
X156916380Y-55364285D02*
X156964000Y-55411904D01*
X157011619Y-55507143D01*
X157011619Y-55745238D01*
X156964000Y-55840476D01*
X156916380Y-55888095D01*
X156821142Y-55935714D01*
X156725904Y-55935714D01*
X156583047Y-55888095D01*
X156011619Y-55316666D01*
X156011619Y-55935714D01*
X156106857Y-56935714D02*
X156059238Y-56888095D01*
X156011619Y-56745238D01*
X156011619Y-56650000D01*
X156059238Y-56507143D01*
X156154476Y-56411904D01*
X156249714Y-56364285D01*
X156440190Y-56316666D01*
X156583047Y-56316666D01*
X156773523Y-56364285D01*
X156868761Y-56411904D01*
X156964000Y-56507143D01*
X157011619Y-56650000D01*
X157011619Y-56745238D01*
X156964000Y-56888095D01*
X156916380Y-56935714D01*
X156392571Y-58126190D02*
X156392571Y-58888095D01*
X156916380Y-60078571D02*
X156964000Y-60126190D01*
X157011619Y-60221428D01*
X157011619Y-60459524D01*
X156964000Y-60554762D01*
X156916380Y-60602381D01*
X156821142Y-60650000D01*
X156725904Y-60650000D01*
X156583047Y-60602381D01*
X156011619Y-60030952D01*
X156011619Y-60650000D01*
X156678285Y-61507143D02*
X156011619Y-61507143D01*
X157059238Y-61269047D02*
X156344952Y-61030952D01*
X156344952Y-61650000D01*
X156106857Y-62602381D02*
X156059238Y-62554762D01*
X156011619Y-62411904D01*
X156011619Y-62316666D01*
X156059238Y-62173809D01*
X156154476Y-62078571D01*
X156249714Y-62030952D01*
X156440190Y-61983333D01*
X156583047Y-61983333D01*
X156773523Y-62030952D01*
X156868761Y-62078571D01*
X156964000Y-62173809D01*
X157011619Y-62316666D01*
X157011619Y-62411904D01*
X156964000Y-62554762D01*
X156916380Y-62602381D01*
X157011619Y-63173809D02*
X156773523Y-63173809D01*
X156868761Y-62935714D02*
X156773523Y-63173809D01*
X156868761Y-63411904D01*
X156583047Y-63030952D02*
X156773523Y-63173809D01*
X156583047Y-63316666D01*
X157011619Y-63935714D02*
X156773523Y-63935714D01*
X156868761Y-63697619D02*
X156773523Y-63935714D01*
X156868761Y-64173809D01*
X156583047Y-63792857D02*
X156773523Y-63935714D01*
X156583047Y-64078571D01*
X150974619Y-47522571D02*
X151974619Y-47522571D01*
X151974619Y-47760666D01*
X151927000Y-47903523D01*
X151831761Y-47998761D01*
X151736523Y-48046380D01*
X151546047Y-48093999D01*
X151403190Y-48093999D01*
X151212714Y-48046380D01*
X151117476Y-47998761D01*
X151022238Y-47903523D01*
X150974619Y-47760666D01*
X150974619Y-47522571D01*
X151022238Y-48903523D02*
X150974619Y-48808285D01*
X150974619Y-48617809D01*
X151022238Y-48522571D01*
X151117476Y-48474952D01*
X151498428Y-48474952D01*
X151593666Y-48522571D01*
X151641285Y-48617809D01*
X151641285Y-48808285D01*
X151593666Y-48903523D01*
X151498428Y-48951142D01*
X151403190Y-48951142D01*
X151307952Y-48474952D01*
X151022238Y-49332095D02*
X150974619Y-49427333D01*
X150974619Y-49617809D01*
X151022238Y-49713047D01*
X151117476Y-49760666D01*
X151165095Y-49760666D01*
X151260333Y-49713047D01*
X151307952Y-49617809D01*
X151307952Y-49474952D01*
X151355571Y-49379714D01*
X151450809Y-49332095D01*
X151498428Y-49332095D01*
X151593666Y-49379714D01*
X151641285Y-49474952D01*
X151641285Y-49617809D01*
X151593666Y-49713047D01*
X150974619Y-50189237D02*
X151641285Y-50189237D01*
X151974619Y-50189237D02*
X151927000Y-50141618D01*
X151879380Y-50189237D01*
X151927000Y-50236856D01*
X151974619Y-50189237D01*
X151879380Y-50189237D01*
X151641285Y-51093999D02*
X150831761Y-51093999D01*
X150736523Y-51046380D01*
X150688904Y-50998761D01*
X150641285Y-50903523D01*
X150641285Y-50760666D01*
X150688904Y-50665428D01*
X151022238Y-51093999D02*
X150974619Y-50998761D01*
X150974619Y-50808285D01*
X151022238Y-50713047D01*
X151069857Y-50665428D01*
X151165095Y-50617809D01*
X151450809Y-50617809D01*
X151546047Y-50665428D01*
X151593666Y-50713047D01*
X151641285Y-50808285D01*
X151641285Y-50998761D01*
X151593666Y-51093999D01*
X151641285Y-51570190D02*
X150974619Y-51570190D01*
X151546047Y-51570190D02*
X151593666Y-51617809D01*
X151641285Y-51713047D01*
X151641285Y-51855904D01*
X151593666Y-51951142D01*
X151498428Y-51998761D01*
X150974619Y-51998761D01*
X151498428Y-53570190D02*
X151498428Y-53236856D01*
X150974619Y-53236856D02*
X151974619Y-53236856D01*
X151974619Y-53713047D01*
X150974619Y-54093999D02*
X151641285Y-54093999D01*
X151974619Y-54093999D02*
X151927000Y-54046380D01*
X151879380Y-54093999D01*
X151927000Y-54141618D01*
X151974619Y-54093999D01*
X151879380Y-54093999D01*
X150974619Y-54713047D02*
X151022238Y-54617809D01*
X151117476Y-54570190D01*
X151974619Y-54570190D01*
X151022238Y-55474952D02*
X150974619Y-55379714D01*
X150974619Y-55189237D01*
X151022238Y-55093999D01*
X151117476Y-55046380D01*
X151498428Y-55046380D01*
X151593666Y-55093999D01*
X151641285Y-55189237D01*
X151641285Y-55379714D01*
X151593666Y-55474952D01*
X151498428Y-55522571D01*
X151403190Y-55522571D01*
X151307952Y-55046380D01*
X151022238Y-55903523D02*
X150974619Y-55998761D01*
X150974619Y-56189237D01*
X151022238Y-56284476D01*
X151117476Y-56332095D01*
X151165095Y-56332095D01*
X151260333Y-56284476D01*
X151307952Y-56189237D01*
X151307952Y-56046380D01*
X151355571Y-55951142D01*
X151450809Y-55903523D01*
X151498428Y-55903523D01*
X151593666Y-55951142D01*
X151641285Y-56046380D01*
X151641285Y-56189237D01*
X151593666Y-56284476D01*
X151022238Y-56808285D02*
X150974619Y-56808285D01*
X150879380Y-56760666D01*
X150831761Y-56713047D01*
X151022238Y-57951142D02*
X150974619Y-58093999D01*
X150974619Y-58332095D01*
X151022238Y-58427333D01*
X151069857Y-58474952D01*
X151165095Y-58522571D01*
X151260333Y-58522571D01*
X151355571Y-58474952D01*
X151403190Y-58427333D01*
X151450809Y-58332095D01*
X151498428Y-58141618D01*
X151546047Y-58046380D01*
X151593666Y-57998761D01*
X151688904Y-57951142D01*
X151784142Y-57951142D01*
X151879380Y-57998761D01*
X151927000Y-58046380D01*
X151974619Y-58141618D01*
X151974619Y-58379714D01*
X151927000Y-58522571D01*
X150974619Y-59093999D02*
X151022238Y-58998761D01*
X151069857Y-58951142D01*
X151165095Y-58903523D01*
X151450809Y-58903523D01*
X151546047Y-58951142D01*
X151593666Y-58998761D01*
X151641285Y-59093999D01*
X151641285Y-59236856D01*
X151593666Y-59332095D01*
X151546047Y-59379714D01*
X151450809Y-59427333D01*
X151165095Y-59427333D01*
X151069857Y-59379714D01*
X151022238Y-59332095D01*
X150974619Y-59236856D01*
X150974619Y-59093999D01*
X151641285Y-59713047D02*
X151641285Y-60093999D01*
X150974619Y-59855904D02*
X151831761Y-59855904D01*
X151927000Y-59903523D01*
X151974619Y-59998761D01*
X151974619Y-60093999D01*
X151641285Y-60284476D02*
X151641285Y-60665428D01*
X151974619Y-60427333D02*
X151117476Y-60427333D01*
X151022238Y-60474952D01*
X150974619Y-60570190D01*
X150974619Y-60665428D01*
X151641285Y-60903523D02*
X150974619Y-61093999D01*
X151450809Y-61284476D01*
X150974619Y-61474952D01*
X151641285Y-61665428D01*
X150974619Y-62474952D02*
X151498428Y-62474952D01*
X151593666Y-62427333D01*
X151641285Y-62332095D01*
X151641285Y-62141618D01*
X151593666Y-62046380D01*
X151022238Y-62474952D02*
X150974619Y-62379714D01*
X150974619Y-62141618D01*
X151022238Y-62046380D01*
X151117476Y-61998761D01*
X151212714Y-61998761D01*
X151307952Y-62046380D01*
X151355571Y-62141618D01*
X151355571Y-62379714D01*
X151403190Y-62474952D01*
X150974619Y-62951142D02*
X151641285Y-62951142D01*
X151450809Y-62951142D02*
X151546047Y-62998761D01*
X151593666Y-63046380D01*
X151641285Y-63141618D01*
X151641285Y-63236856D01*
X151022238Y-63951142D02*
X150974619Y-63855904D01*
X150974619Y-63665428D01*
X151022238Y-63570190D01*
X151117476Y-63522571D01*
X151498428Y-63522571D01*
X151593666Y-63570190D01*
X151641285Y-63665428D01*
X151641285Y-63855904D01*
X151593666Y-63951142D01*
X151498428Y-63998761D01*
X151403190Y-63998761D01*
X151307952Y-63522571D01*
X151022238Y-64474952D02*
X150974619Y-64474952D01*
X150879380Y-64427333D01*
X150831761Y-64379714D01*
X150974619Y-66093999D02*
X151498428Y-66093999D01*
X151593666Y-66046380D01*
X151641285Y-65951142D01*
X151641285Y-65760666D01*
X151593666Y-65665428D01*
X151022238Y-66093999D02*
X150974619Y-65998761D01*
X150974619Y-65760666D01*
X151022238Y-65665428D01*
X151117476Y-65617809D01*
X151212714Y-65617809D01*
X151307952Y-65665428D01*
X151355571Y-65760666D01*
X151355571Y-65998761D01*
X151403190Y-66093999D01*
X151641285Y-66570190D02*
X150974619Y-66570190D01*
X151546047Y-66570190D02*
X151593666Y-66617809D01*
X151641285Y-66713047D01*
X151641285Y-66855904D01*
X151593666Y-66951142D01*
X151498428Y-66998761D01*
X150974619Y-66998761D01*
X150974619Y-67903523D02*
X151974619Y-67903523D01*
X151022238Y-67903523D02*
X150974619Y-67808285D01*
X150974619Y-67617809D01*
X151022238Y-67522571D01*
X151069857Y-67474952D01*
X151165095Y-67427333D01*
X151450809Y-67427333D01*
X151546047Y-67474952D01*
X151593666Y-67522571D01*
X151641285Y-67617809D01*
X151641285Y-67808285D01*
X151593666Y-67903523D01*
X150974619Y-69141618D02*
X151974619Y-69141618D01*
X151974619Y-69379714D01*
X151927000Y-69522571D01*
X151831761Y-69617809D01*
X151736523Y-69665428D01*
X151546047Y-69713047D01*
X151403190Y-69713047D01*
X151212714Y-69665428D01*
X151117476Y-69617809D01*
X151022238Y-69522571D01*
X150974619Y-69379714D01*
X150974619Y-69141618D01*
X150974619Y-70284476D02*
X151022238Y-70189237D01*
X151069857Y-70141618D01*
X151165095Y-70093999D01*
X151450809Y-70093999D01*
X151546047Y-70141618D01*
X151593666Y-70189237D01*
X151641285Y-70284476D01*
X151641285Y-70427333D01*
X151593666Y-70522571D01*
X151546047Y-70570190D01*
X151450809Y-70617809D01*
X151165095Y-70617809D01*
X151069857Y-70570190D01*
X151022238Y-70522571D01*
X150974619Y-70427333D01*
X150974619Y-70284476D01*
X151022238Y-71474952D02*
X150974619Y-71379714D01*
X150974619Y-71189237D01*
X151022238Y-71093999D01*
X151069857Y-71046380D01*
X151165095Y-70998761D01*
X151450809Y-70998761D01*
X151546047Y-71046380D01*
X151593666Y-71093999D01*
X151641285Y-71189237D01*
X151641285Y-71379714D01*
X151593666Y-71474952D01*
X151641285Y-72332095D02*
X150974619Y-72332095D01*
X151641285Y-71903523D02*
X151117476Y-71903523D01*
X151022238Y-71951142D01*
X150974619Y-72046380D01*
X150974619Y-72189237D01*
X151022238Y-72284476D01*
X151069857Y-72332095D01*
X150974619Y-72808285D02*
X151641285Y-72808285D01*
X151546047Y-72808285D02*
X151593666Y-72855904D01*
X151641285Y-72951142D01*
X151641285Y-73093999D01*
X151593666Y-73189237D01*
X151498428Y-73236856D01*
X150974619Y-73236856D01*
X151498428Y-73236856D02*
X151593666Y-73284476D01*
X151641285Y-73379714D01*
X151641285Y-73522571D01*
X151593666Y-73617809D01*
X151498428Y-73665428D01*
X150974619Y-73665428D01*
X151022238Y-74522571D02*
X150974619Y-74427333D01*
X150974619Y-74236856D01*
X151022238Y-74141618D01*
X151117476Y-74093999D01*
X151498428Y-74093999D01*
X151593666Y-74141618D01*
X151641285Y-74236856D01*
X151641285Y-74427333D01*
X151593666Y-74522571D01*
X151498428Y-74570190D01*
X151403190Y-74570190D01*
X151307952Y-74093999D01*
X151641285Y-74998761D02*
X150974619Y-74998761D01*
X151546047Y-74998761D02*
X151593666Y-75046380D01*
X151641285Y-75141618D01*
X151641285Y-75284476D01*
X151593666Y-75379714D01*
X151498428Y-75427333D01*
X150974619Y-75427333D01*
X151641285Y-75760666D02*
X151641285Y-76141618D01*
X151974619Y-75903523D02*
X151117476Y-75903523D01*
X151022238Y-75951142D01*
X150974619Y-76046380D01*
X150974619Y-76141618D01*
X150974619Y-76903523D02*
X151498428Y-76903523D01*
X151593666Y-76855904D01*
X151641285Y-76760666D01*
X151641285Y-76570190D01*
X151593666Y-76474952D01*
X151022238Y-76903523D02*
X150974619Y-76808285D01*
X150974619Y-76570190D01*
X151022238Y-76474952D01*
X151117476Y-76427333D01*
X151212714Y-76427333D01*
X151307952Y-76474952D01*
X151355571Y-76570190D01*
X151355571Y-76808285D01*
X151403190Y-76903523D01*
X151641285Y-77236856D02*
X151641285Y-77617809D01*
X151974619Y-77379714D02*
X151117476Y-77379714D01*
X151022238Y-77427333D01*
X150974619Y-77522571D01*
X150974619Y-77617809D01*
X150974619Y-77951142D02*
X151641285Y-77951142D01*
X151974619Y-77951142D02*
X151927000Y-77903523D01*
X151879380Y-77951142D01*
X151927000Y-77998761D01*
X151974619Y-77951142D01*
X151879380Y-77951142D01*
X150974619Y-78570190D02*
X151022238Y-78474952D01*
X151069857Y-78427333D01*
X151165095Y-78379714D01*
X151450809Y-78379714D01*
X151546047Y-78427333D01*
X151593666Y-78474952D01*
X151641285Y-78570190D01*
X151641285Y-78713047D01*
X151593666Y-78808285D01*
X151546047Y-78855904D01*
X151450809Y-78903523D01*
X151165095Y-78903523D01*
X151069857Y-78855904D01*
X151022238Y-78808285D01*
X150974619Y-78713047D01*
X150974619Y-78570190D01*
X151641285Y-79332095D02*
X150974619Y-79332095D01*
X151546047Y-79332095D02*
X151593666Y-79379714D01*
X151641285Y-79474952D01*
X151641285Y-79617809D01*
X151593666Y-79713047D01*
X151498428Y-79760666D01*
X150974619Y-79760666D01*
X151069857Y-80236856D02*
X151022238Y-80284475D01*
X150974619Y-80236856D01*
X151022238Y-80189237D01*
X151069857Y-80236856D01*
X150974619Y-80236856D01*
X151593666Y-80236856D02*
X151546047Y-80284475D01*
X151498428Y-80236856D01*
X151546047Y-80189237D01*
X151593666Y-80236856D01*
X151498428Y-80236856D01*
X149364619Y-47522571D02*
X150364619Y-47522571D01*
X149364619Y-47951142D02*
X149888428Y-47951142D01*
X149983666Y-47903523D01*
X150031285Y-47808285D01*
X150031285Y-47665428D01*
X149983666Y-47570190D01*
X149936047Y-47522571D01*
X150031285Y-48284476D02*
X150031285Y-48665428D01*
X150364619Y-48427333D02*
X149507476Y-48427333D01*
X149412238Y-48474952D01*
X149364619Y-48570190D01*
X149364619Y-48665428D01*
X150031285Y-48855904D02*
X150031285Y-49236856D01*
X150364619Y-48998761D02*
X149507476Y-48998761D01*
X149412238Y-49046380D01*
X149364619Y-49141618D01*
X149364619Y-49236856D01*
X150031285Y-49570190D02*
X149031285Y-49570190D01*
X149983666Y-49570190D02*
X150031285Y-49665428D01*
X150031285Y-49855904D01*
X149983666Y-49951142D01*
X149936047Y-49998761D01*
X149840809Y-50046380D01*
X149555095Y-50046380D01*
X149459857Y-49998761D01*
X149412238Y-49951142D01*
X149364619Y-49855904D01*
X149364619Y-49665428D01*
X149412238Y-49570190D01*
X149412238Y-50427333D02*
X149364619Y-50522571D01*
X149364619Y-50713047D01*
X149412238Y-50808285D01*
X149507476Y-50855904D01*
X149555095Y-50855904D01*
X149650333Y-50808285D01*
X149697952Y-50713047D01*
X149697952Y-50570190D01*
X149745571Y-50474952D01*
X149840809Y-50427333D01*
X149888428Y-50427333D01*
X149983666Y-50474952D01*
X150031285Y-50570190D01*
X150031285Y-50713047D01*
X149983666Y-50808285D01*
X149459857Y-51284476D02*
X149412238Y-51332095D01*
X149364619Y-51284476D01*
X149412238Y-51236856D01*
X149459857Y-51284476D01*
X149364619Y-51284476D01*
X149983666Y-51284476D02*
X149936047Y-51332095D01*
X149888428Y-51284476D01*
X149936047Y-51236856D01*
X149983666Y-51284476D01*
X149888428Y-51284476D01*
X150412238Y-52474952D02*
X149126523Y-51617809D01*
X150412238Y-53522571D02*
X149126523Y-52665428D01*
X150031285Y-54284476D02*
X149221761Y-54284476D01*
X149126523Y-54236856D01*
X149078904Y-54189237D01*
X149031285Y-54093999D01*
X149031285Y-53951142D01*
X149078904Y-53855904D01*
X149412238Y-54284476D02*
X149364619Y-54189237D01*
X149364619Y-53998761D01*
X149412238Y-53903523D01*
X149459857Y-53855904D01*
X149555095Y-53808285D01*
X149840809Y-53808285D01*
X149936047Y-53855904D01*
X149983666Y-53903523D01*
X150031285Y-53998761D01*
X150031285Y-54189237D01*
X149983666Y-54284476D01*
X149364619Y-54760666D02*
X150031285Y-54760666D01*
X150364619Y-54760666D02*
X150317000Y-54713047D01*
X150269380Y-54760666D01*
X150317000Y-54808285D01*
X150364619Y-54760666D01*
X150269380Y-54760666D01*
X150031285Y-55093999D02*
X150031285Y-55474952D01*
X150364619Y-55236856D02*
X149507476Y-55236856D01*
X149412238Y-55284476D01*
X149364619Y-55379714D01*
X149364619Y-55474952D01*
X149364619Y-55808285D02*
X150364619Y-55808285D01*
X149364619Y-56236856D02*
X149888428Y-56236856D01*
X149983666Y-56189237D01*
X150031285Y-56093999D01*
X150031285Y-55951142D01*
X149983666Y-55855904D01*
X149936047Y-55808285D01*
X150031285Y-57141618D02*
X149364619Y-57141618D01*
X150031285Y-56713047D02*
X149507476Y-56713047D01*
X149412238Y-56760666D01*
X149364619Y-56855904D01*
X149364619Y-56998761D01*
X149412238Y-57093999D01*
X149459857Y-57141618D01*
X149364619Y-57617809D02*
X150364619Y-57617809D01*
X149983666Y-57617809D02*
X150031285Y-57713047D01*
X150031285Y-57903523D01*
X149983666Y-57998761D01*
X149936047Y-58046380D01*
X149840809Y-58093999D01*
X149555095Y-58093999D01*
X149459857Y-58046380D01*
X149412238Y-57998761D01*
X149364619Y-57903523D01*
X149364619Y-57713047D01*
X149412238Y-57617809D01*
X149459857Y-58522571D02*
X149412238Y-58570190D01*
X149364619Y-58522571D01*
X149412238Y-58474952D01*
X149459857Y-58522571D01*
X149364619Y-58522571D01*
X149412238Y-59427333D02*
X149364619Y-59332095D01*
X149364619Y-59141618D01*
X149412238Y-59046380D01*
X149459857Y-58998761D01*
X149555095Y-58951142D01*
X149840809Y-58951142D01*
X149936047Y-58998761D01*
X149983666Y-59046380D01*
X150031285Y-59141618D01*
X150031285Y-59332095D01*
X149983666Y-59427333D01*
X149364619Y-59998761D02*
X149412238Y-59903523D01*
X149459857Y-59855904D01*
X149555095Y-59808285D01*
X149840809Y-59808285D01*
X149936047Y-59855904D01*
X149983666Y-59903523D01*
X150031285Y-59998761D01*
X150031285Y-60141618D01*
X149983666Y-60236856D01*
X149936047Y-60284476D01*
X149840809Y-60332095D01*
X149555095Y-60332095D01*
X149459857Y-60284476D01*
X149412238Y-60236856D01*
X149364619Y-60141618D01*
X149364619Y-59998761D01*
X149364619Y-60760666D02*
X150031285Y-60760666D01*
X149936047Y-60760666D02*
X149983666Y-60808285D01*
X150031285Y-60903523D01*
X150031285Y-61046380D01*
X149983666Y-61141618D01*
X149888428Y-61189237D01*
X149364619Y-61189237D01*
X149888428Y-61189237D02*
X149983666Y-61236856D01*
X150031285Y-61332095D01*
X150031285Y-61474952D01*
X149983666Y-61570190D01*
X149888428Y-61617809D01*
X149364619Y-61617809D01*
X150412238Y-62808285D02*
X149126523Y-61951142D01*
X149364619Y-63570190D02*
X149888428Y-63570190D01*
X149983666Y-63522571D01*
X150031285Y-63427333D01*
X150031285Y-63236856D01*
X149983666Y-63141618D01*
X149412238Y-63570190D02*
X149364619Y-63474952D01*
X149364619Y-63236856D01*
X149412238Y-63141618D01*
X149507476Y-63093999D01*
X149602714Y-63093999D01*
X149697952Y-63141618D01*
X149745571Y-63236856D01*
X149745571Y-63474952D01*
X149793190Y-63570190D01*
X150031285Y-64046380D02*
X149364619Y-64046380D01*
X149936047Y-64046380D02*
X149983666Y-64093999D01*
X150031285Y-64189237D01*
X150031285Y-64332095D01*
X149983666Y-64427333D01*
X149888428Y-64474952D01*
X149364619Y-64474952D01*
X149364619Y-65379714D02*
X150364619Y-65379714D01*
X149412238Y-65379714D02*
X149364619Y-65284476D01*
X149364619Y-65093999D01*
X149412238Y-64998761D01*
X149459857Y-64951142D01*
X149555095Y-64903523D01*
X149840809Y-64903523D01*
X149936047Y-64951142D01*
X149983666Y-64998761D01*
X150031285Y-65093999D01*
X150031285Y-65284476D01*
X149983666Y-65379714D01*
X149364619Y-65855904D02*
X150031285Y-65855904D01*
X149840809Y-65855904D02*
X149936047Y-65903523D01*
X149983666Y-65951142D01*
X150031285Y-66046380D01*
X150031285Y-66141618D01*
X149412238Y-66855904D02*
X149364619Y-66760666D01*
X149364619Y-66570190D01*
X149412238Y-66474952D01*
X149507476Y-66427333D01*
X149888428Y-66427333D01*
X149983666Y-66474952D01*
X150031285Y-66570190D01*
X150031285Y-66760666D01*
X149983666Y-66855904D01*
X149888428Y-66903523D01*
X149793190Y-66903523D01*
X149697952Y-66427333D01*
X150031285Y-67236856D02*
X149364619Y-67427333D01*
X149840809Y-67617809D01*
X149364619Y-67808285D01*
X150031285Y-67998761D01*
X150031285Y-68236856D02*
X150031285Y-68617809D01*
X150364619Y-68379714D02*
X149507476Y-68379714D01*
X149412238Y-68427333D01*
X149364619Y-68522571D01*
X149364619Y-68617809D01*
X149412238Y-69332095D02*
X149364619Y-69236856D01*
X149364619Y-69046380D01*
X149412238Y-68951142D01*
X149507476Y-68903523D01*
X149888428Y-68903523D01*
X149983666Y-68951142D01*
X150031285Y-69046380D01*
X150031285Y-69236856D01*
X149983666Y-69332095D01*
X149888428Y-69379714D01*
X149793190Y-69379714D01*
X149697952Y-68903523D01*
X149364619Y-70236856D02*
X149888428Y-70236856D01*
X149983666Y-70189237D01*
X150031285Y-70093999D01*
X150031285Y-69903523D01*
X149983666Y-69808285D01*
X149412238Y-70236856D02*
X149364619Y-70141618D01*
X149364619Y-69903523D01*
X149412238Y-69808285D01*
X149507476Y-69760666D01*
X149602714Y-69760666D01*
X149697952Y-69808285D01*
X149745571Y-69903523D01*
X149745571Y-70141618D01*
X149793190Y-70236856D01*
X149364619Y-70855904D02*
X149412238Y-70760666D01*
X149507476Y-70713047D01*
X150364619Y-70713047D01*
X149364619Y-71379714D02*
X149412238Y-71284476D01*
X149507476Y-71236856D01*
X150364619Y-71236856D01*
X150412238Y-72474952D02*
X149126523Y-71617809D01*
X150031285Y-72808285D02*
X149031285Y-72808285D01*
X149983666Y-72808285D02*
X150031285Y-72903523D01*
X150031285Y-73093999D01*
X149983666Y-73189237D01*
X149936047Y-73236856D01*
X149840809Y-73284476D01*
X149555095Y-73284476D01*
X149459857Y-73236856D01*
X149412238Y-73189237D01*
X149364619Y-73093999D01*
X149364619Y-72903523D01*
X149412238Y-72808285D01*
X149364619Y-73713047D02*
X150031285Y-73713047D01*
X150364619Y-73713047D02*
X150317000Y-73665428D01*
X150269380Y-73713047D01*
X150317000Y-73760666D01*
X150364619Y-73713047D01*
X150269380Y-73713047D01*
X149745571Y-74189237D02*
X149745571Y-74951142D01*
X149412238Y-75808285D02*
X149364619Y-75713047D01*
X149364619Y-75522571D01*
X149412238Y-75427333D01*
X149507476Y-75379714D01*
X149888428Y-75379714D01*
X149983666Y-75427333D01*
X150031285Y-75522571D01*
X150031285Y-75713047D01*
X149983666Y-75808285D01*
X149888428Y-75855904D01*
X149793190Y-75855904D01*
X149697952Y-75379714D01*
X149412238Y-76665428D02*
X149364619Y-76570190D01*
X149364619Y-76379714D01*
X149412238Y-76284476D01*
X149507476Y-76236856D01*
X149888428Y-76236856D01*
X149983666Y-76284476D01*
X150031285Y-76379714D01*
X150031285Y-76570190D01*
X149983666Y-76665428D01*
X149888428Y-76713047D01*
X149793190Y-76713047D01*
X149697952Y-76236856D01*
X150031285Y-77141618D02*
X149031285Y-77141618D01*
X149983666Y-77141618D02*
X150031285Y-77236856D01*
X150031285Y-77427333D01*
X149983666Y-77522571D01*
X149936047Y-77570190D01*
X149840809Y-77617809D01*
X149555095Y-77617809D01*
X149459857Y-77570190D01*
X149412238Y-77522571D01*
X149364619Y-77427333D01*
X149364619Y-77236856D01*
X149412238Y-77141618D01*
X149364619Y-78046380D02*
X150031285Y-78046380D01*
X149840809Y-78046380D02*
X149936047Y-78093999D01*
X149983666Y-78141618D01*
X150031285Y-78236856D01*
X150031285Y-78332095D01*
X149364619Y-78808285D02*
X149412238Y-78713047D01*
X149459857Y-78665428D01*
X149555095Y-78617809D01*
X149840809Y-78617809D01*
X149936047Y-78665428D01*
X149983666Y-78713047D01*
X150031285Y-78808285D01*
X150031285Y-78951142D01*
X149983666Y-79046380D01*
X149936047Y-79093999D01*
X149840809Y-79141618D01*
X149555095Y-79141618D01*
X149459857Y-79093999D01*
X149412238Y-79046380D01*
X149364619Y-78951142D01*
X149364619Y-78808285D01*
X149364619Y-79570190D02*
X150031285Y-79570190D01*
X149936047Y-79570190D02*
X149983666Y-79617809D01*
X150031285Y-79713047D01*
X150031285Y-79855904D01*
X149983666Y-79951142D01*
X149888428Y-79998761D01*
X149364619Y-79998761D01*
X149888428Y-79998761D02*
X149983666Y-80046380D01*
X150031285Y-80141618D01*
X150031285Y-80284476D01*
X149983666Y-80379714D01*
X149888428Y-80427333D01*
X149364619Y-80427333D01*
X149745571Y-80903523D02*
X149745571Y-81665428D01*
X150031285Y-82141618D02*
X149031285Y-82141618D01*
X149983666Y-82141618D02*
X150031285Y-82236856D01*
X150031285Y-82427333D01*
X149983666Y-82522571D01*
X149936047Y-82570190D01*
X149840809Y-82617809D01*
X149555095Y-82617809D01*
X149459857Y-82570190D01*
X149412238Y-82522571D01*
X149364619Y-82427333D01*
X149364619Y-82236856D01*
X149412238Y-82141618D01*
X149364619Y-83046380D02*
X150031285Y-83046380D01*
X149840809Y-83046380D02*
X149936047Y-83093999D01*
X149983666Y-83141618D01*
X150031285Y-83236856D01*
X150031285Y-83332095D01*
X149364619Y-83808285D02*
X149412238Y-83713047D01*
X149459857Y-83665428D01*
X149555095Y-83617809D01*
X149840809Y-83617809D01*
X149936047Y-83665428D01*
X149983666Y-83713047D01*
X150031285Y-83808285D01*
X150031285Y-83951142D01*
X149983666Y-84046380D01*
X149936047Y-84093999D01*
X149840809Y-84141618D01*
X149555095Y-84141618D01*
X149459857Y-84093999D01*
X149412238Y-84046380D01*
X149364619Y-83951142D01*
X149364619Y-83808285D01*
X150031285Y-84998761D02*
X149221761Y-84998761D01*
X149126523Y-84951142D01*
X149078904Y-84903523D01*
X149031285Y-84808285D01*
X149031285Y-84665428D01*
X149078904Y-84570190D01*
X149412238Y-84998761D02*
X149364619Y-84903523D01*
X149364619Y-84713047D01*
X149412238Y-84617809D01*
X149459857Y-84570190D01*
X149555095Y-84522571D01*
X149840809Y-84522571D01*
X149936047Y-84570190D01*
X149983666Y-84617809D01*
X150031285Y-84713047D01*
X150031285Y-84903523D01*
X149983666Y-84998761D01*
X149364619Y-85474952D02*
X150031285Y-85474952D01*
X149840809Y-85474952D02*
X149936047Y-85522571D01*
X149983666Y-85570190D01*
X150031285Y-85665428D01*
X150031285Y-85760666D01*
X149364619Y-86522571D02*
X149888428Y-86522571D01*
X149983666Y-86474952D01*
X150031285Y-86379714D01*
X150031285Y-86189237D01*
X149983666Y-86093999D01*
X149412238Y-86522571D02*
X149364619Y-86427333D01*
X149364619Y-86189237D01*
X149412238Y-86093999D01*
X149507476Y-86046380D01*
X149602714Y-86046380D01*
X149697952Y-86093999D01*
X149745571Y-86189237D01*
X149745571Y-86427333D01*
X149793190Y-86522571D01*
X149364619Y-86998761D02*
X150031285Y-86998761D01*
X149936047Y-86998761D02*
X149983666Y-87046380D01*
X150031285Y-87141618D01*
X150031285Y-87284476D01*
X149983666Y-87379714D01*
X149888428Y-87427333D01*
X149364619Y-87427333D01*
X149888428Y-87427333D02*
X149983666Y-87474952D01*
X150031285Y-87570190D01*
X150031285Y-87713047D01*
X149983666Y-87808285D01*
X149888428Y-87855904D01*
X149364619Y-87855904D01*
X149364619Y-88332095D02*
X150031285Y-88332095D01*
X149936047Y-88332095D02*
X149983666Y-88379714D01*
X150031285Y-88474952D01*
X150031285Y-88617809D01*
X149983666Y-88713047D01*
X149888428Y-88760666D01*
X149364619Y-88760666D01*
X149888428Y-88760666D02*
X149983666Y-88808285D01*
X150031285Y-88903523D01*
X150031285Y-89046380D01*
X149983666Y-89141618D01*
X149888428Y-89189237D01*
X149364619Y-89189237D01*
X149412238Y-90046380D02*
X149364619Y-89951142D01*
X149364619Y-89760666D01*
X149412238Y-89665428D01*
X149507476Y-89617809D01*
X149888428Y-89617809D01*
X149983666Y-89665428D01*
X150031285Y-89760666D01*
X150031285Y-89951142D01*
X149983666Y-90046380D01*
X149888428Y-90093999D01*
X149793190Y-90093999D01*
X149697952Y-89617809D01*
X149364619Y-90522571D02*
X150031285Y-90522571D01*
X149840809Y-90522571D02*
X149936047Y-90570190D01*
X149983666Y-90617809D01*
X150031285Y-90713047D01*
X150031285Y-90808285D01*
X160167580Y-42402485D02*
X160215200Y-42450104D01*
X160262819Y-42545342D01*
X160262819Y-42783438D01*
X160215200Y-42878676D01*
X160167580Y-42926295D01*
X160072342Y-42973914D01*
X159977104Y-42973914D01*
X159834247Y-42926295D01*
X159262819Y-42354866D01*
X159262819Y-42973914D01*
X157722819Y-42354866D02*
X157722819Y-42973914D01*
X157341866Y-42640580D01*
X157341866Y-42783438D01*
X157294247Y-42878676D01*
X157246628Y-42926295D01*
X157151390Y-42973914D01*
X156913295Y-42973914D01*
X156818057Y-42926295D01*
X156770438Y-42878676D01*
X156722819Y-42783438D01*
X156722819Y-42497723D01*
X156770438Y-42402485D01*
X156818057Y-42354866D01*
X164631619Y-56626190D02*
X163917333Y-56626190D01*
X163774476Y-56578571D01*
X163679238Y-56483333D01*
X163631619Y-56340476D01*
X163631619Y-56245238D01*
X164536380Y-57054762D02*
X164584000Y-57102381D01*
X164631619Y-57197619D01*
X164631619Y-57435714D01*
X164584000Y-57530952D01*
X164536380Y-57578571D01*
X164441142Y-57626190D01*
X164345904Y-57626190D01*
X164203047Y-57578571D01*
X163631619Y-57007143D01*
X163631619Y-57626190D01*
X161802819Y-42973914D02*
X161802819Y-42402485D01*
X161802819Y-42688200D02*
X162802819Y-42688200D01*
X162659961Y-42592961D01*
X162564723Y-42497723D01*
X162517104Y-42402485D01*
X163631619Y-68040476D02*
X164631619Y-68040476D01*
X163917333Y-68373809D01*
X164631619Y-68707142D01*
X163631619Y-68707142D01*
X164631619Y-69373809D02*
X164631619Y-69564285D01*
X164584000Y-69659523D01*
X164488761Y-69754761D01*
X164298285Y-69802380D01*
X163964952Y-69802380D01*
X163774476Y-69754761D01*
X163679238Y-69659523D01*
X163631619Y-69564285D01*
X163631619Y-69373809D01*
X163679238Y-69278571D01*
X163774476Y-69183333D01*
X163964952Y-69135714D01*
X164298285Y-69135714D01*
X164488761Y-69183333D01*
X164584000Y-69278571D01*
X164631619Y-69373809D01*
X163631619Y-70230952D02*
X164631619Y-70230952D01*
X164631619Y-70469047D01*
X164584000Y-70611904D01*
X164488761Y-70707142D01*
X164393523Y-70754761D01*
X164203047Y-70802380D01*
X164060190Y-70802380D01*
X163869714Y-70754761D01*
X163774476Y-70707142D01*
X163679238Y-70611904D01*
X163631619Y-70469047D01*
X163631619Y-70230952D01*
X164155428Y-71230952D02*
X164155428Y-71564285D01*
X163631619Y-71707142D02*
X163631619Y-71230952D01*
X164631619Y-71230952D01*
X164631619Y-71707142D01*
X161091619Y-69040476D02*
X161091619Y-68469047D01*
X161091619Y-68754761D02*
X162091619Y-68754761D01*
X161948761Y-68659523D01*
X161853523Y-68564285D01*
X161805904Y-68469047D01*
X161472571Y-69469047D02*
X161472571Y-70230952D01*
X161996380Y-70659523D02*
X162044000Y-70707142D01*
X162091619Y-70802380D01*
X162091619Y-71040476D01*
X162044000Y-71135714D01*
X161996380Y-71183333D01*
X161901142Y-71230952D01*
X161805904Y-71230952D01*
X161663047Y-71183333D01*
X161091619Y-70611904D01*
X161091619Y-71230952D01*
X157011619Y-68278571D02*
X157011619Y-68469047D01*
X156964000Y-68564285D01*
X156868761Y-68659523D01*
X156678285Y-68707142D01*
X156344952Y-68707142D01*
X156154476Y-68659523D01*
X156059238Y-68564285D01*
X156011619Y-68469047D01*
X156011619Y-68278571D01*
X156059238Y-68183333D01*
X156154476Y-68088095D01*
X156344952Y-68040476D01*
X156678285Y-68040476D01*
X156868761Y-68088095D01*
X156964000Y-68183333D01*
X157011619Y-68278571D01*
X156011619Y-69135714D02*
X157011619Y-69135714D01*
X157011619Y-69516666D01*
X156964000Y-69611904D01*
X156916380Y-69659523D01*
X156821142Y-69707142D01*
X156678285Y-69707142D01*
X156583047Y-69659523D01*
X156535428Y-69611904D01*
X156487809Y-69516666D01*
X156487809Y-69135714D01*
X156535428Y-70135714D02*
X156535428Y-70469047D01*
X156011619Y-70611904D02*
X156011619Y-70135714D01*
X157011619Y-70135714D01*
X157011619Y-70611904D01*
X156011619Y-71040476D02*
X157011619Y-71040476D01*
X156011619Y-71611904D01*
X157011619Y-71611904D01*
X139417620Y-44358166D02*
X138703334Y-44358166D01*
X138560477Y-44310547D01*
X138465239Y-44215309D01*
X138417620Y-44072452D01*
X138417620Y-43977214D01*
X138417620Y-45358166D02*
X138417620Y-44786738D01*
X138417620Y-45072452D02*
X139417620Y-45072452D01*
X139274762Y-44977214D01*
X139179524Y-44881976D01*
X139131905Y-44786738D01*
X186664695Y-49693880D02*
X186664695Y-50503404D01*
X186712314Y-50598642D01*
X186759933Y-50646261D01*
X186855171Y-50693880D01*
X187045647Y-50693880D01*
X187140885Y-50646261D01*
X187188504Y-50598642D01*
X187236123Y-50503404D01*
X187236123Y-49693880D01*
X188236123Y-50693880D02*
X187664695Y-50693880D01*
X187950409Y-50693880D02*
X187950409Y-49693880D01*
X187855171Y-49836738D01*
X187759933Y-49931976D01*
X187664695Y-49979595D01*
X186629695Y-71347380D02*
X186629695Y-72156904D01*
X186677314Y-72252142D01*
X186724933Y-72299761D01*
X186820171Y-72347380D01*
X187010647Y-72347380D01*
X187105885Y-72299761D01*
X187153504Y-72252142D01*
X187201123Y-72156904D01*
X187201123Y-71347380D01*
X187629695Y-71442619D02*
X187677314Y-71395000D01*
X187772552Y-71347380D01*
X188010647Y-71347380D01*
X188105885Y-71395000D01*
X188153504Y-71442619D01*
X188201123Y-71537857D01*
X188201123Y-71633095D01*
X188153504Y-71775952D01*
X187582076Y-72347380D01*
X188201123Y-72347380D01*
X165386819Y-44573866D02*
X164672533Y-44573866D01*
X164529676Y-44526247D01*
X164434438Y-44431009D01*
X164386819Y-44288152D01*
X164386819Y-44192914D01*
X165291580Y-45002438D02*
X165339200Y-45050057D01*
X165386819Y-45145295D01*
X165386819Y-45383390D01*
X165339200Y-45478628D01*
X165291580Y-45526247D01*
X165196342Y-45573866D01*
X165101104Y-45573866D01*
X164958247Y-45526247D01*
X164386819Y-44954819D01*
X164386819Y-45573866D01*
D10*
X135105201Y-83381500D02*
X135545201Y-83381500D01*
X135105201Y-54721500D02*
X135545201Y-54721500D01*
X135105201Y-92821500D02*
X135545201Y-92821500D01*
X135105201Y-75041500D02*
X135545201Y-75041500D01*
X135105201Y-49641500D02*
X135545201Y-49641500D01*
X135105201Y-77581500D02*
X135545201Y-77581500D01*
X135105201Y-59801500D02*
X135545201Y-59801500D01*
X135105201Y-50361500D02*
X135545201Y-50361500D01*
X135105201Y-87741500D02*
X135545201Y-87741500D01*
X135105201Y-68141500D02*
X135545201Y-68141500D01*
X135105201Y-67421500D02*
X135545201Y-67421500D01*
X135105201Y-72501500D02*
X135545201Y-72501500D01*
X135105201Y-57261500D02*
X135545201Y-57261500D01*
X135105201Y-90281500D02*
X135545201Y-90281500D01*
X135105201Y-91001500D02*
X135545201Y-91001500D01*
X135105201Y-65601500D02*
X135545201Y-65601500D01*
X135105201Y-70681500D02*
X135545201Y-70681500D01*
X135105201Y-82661500D02*
X135545201Y-82661500D01*
X135105201Y-85921500D02*
X135545201Y-85921500D01*
X135105201Y-69961500D02*
X135545201Y-69961500D01*
X135105201Y-52901500D02*
X135545201Y-52901500D01*
X135105201Y-57981500D02*
X135545201Y-57981500D01*
X137705201Y-43591500D02*
X137705201Y-44921500D01*
X135105201Y-47101500D02*
X135545201Y-47101500D01*
X135105201Y-88461500D02*
X135545201Y-88461500D01*
X135105201Y-52181500D02*
X135545201Y-52181500D01*
X135105201Y-75761500D02*
X135545201Y-75761500D01*
X135105201Y-47821500D02*
X135545201Y-47821500D01*
X136595201Y-43591500D02*
X137705201Y-43591500D01*
X135105201Y-63061500D02*
X135545201Y-63061500D01*
X135105201Y-80121500D02*
X135545201Y-80121500D01*
X135105201Y-73221500D02*
X135545201Y-73221500D01*
X135105201Y-60521500D02*
X135545201Y-60521500D01*
X135105201Y-62341500D02*
X135545201Y-62341500D01*
X135105201Y-64881500D02*
X135545201Y-64881500D01*
X135105201Y-80841500D02*
X135545201Y-80841500D01*
X135105201Y-55441500D02*
X135545201Y-55441500D01*
X135105201Y-78301500D02*
X135545201Y-78301500D01*
X135105201Y-45281500D02*
X135485201Y-45281500D01*
X135105201Y-93541500D02*
X135545201Y-93541500D01*
X135105201Y-44561500D02*
X135485201Y-44561500D01*
X135105201Y-85201500D02*
X135545201Y-85201500D01*
X178476600Y-51181500D02*
X178476600Y-86981500D01*
X196376600Y-86981500D02*
X196376600Y-51181500D01*
X180966600Y-86921500D02*
X193886600Y-86921500D01*
X193886600Y-51241500D02*
X188426600Y-51241500D01*
X193886600Y-86921500D02*
X193886600Y-51241500D01*
X196376600Y-51181500D02*
X178476600Y-51181500D01*
X178476600Y-86981500D02*
X196376600Y-86981500D01*
X180966600Y-51241500D02*
X180966600Y-86921500D01*
X186426600Y-51241500D02*
X180966600Y-51241500D01*
X186426600Y-51241500D02*
G75*
G03*
X188426600Y-51241500I1000000J0D01*
G01*
X182251600Y-83235000D02*
X192531600Y-83235000D01*
X182251600Y-72835000D02*
X182251600Y-83235000D01*
X184741600Y-72895000D02*
X184741600Y-83175000D01*
X190041600Y-83175000D02*
X190041600Y-72895000D01*
X192531600Y-72835000D02*
X182251600Y-72835000D01*
X184741600Y-83175000D02*
X190041600Y-83175000D01*
X190041600Y-72895000D02*
X188391600Y-72895000D01*
X186391600Y-72895000D02*
X184741600Y-72895000D01*
X192531600Y-83235000D02*
X192531600Y-72835000D01*
X186391600Y-72895000D02*
G75*
G03*
X188391600Y-72895000I1000000J0D01*
G01*
X160985200Y-46237200D02*
X155845200Y-46237200D01*
X155845200Y-43577200D02*
X155845200Y-46237200D01*
X160985200Y-43577200D02*
X160985200Y-46237200D01*
X160985200Y-43577200D02*
X155845200Y-43577200D01*
X162255200Y-43577200D02*
X163585200Y-43577200D01*
X163585200Y-43577200D02*
X163585200Y-44907200D01*
M02*
